<svg xmlns="http://www.w3.org/2000/svg" viewBox="0 0 512 512" width="512" height="512">
  <!-- Background circle -->
  <circle cx="256" cy="256" r="240" fill="#2563eb" stroke="#1d4ed8" stroke-width="8"/>

  <!-- Clipboard background -->
  <rect x="140" y="120" width="232" height="280" rx="16" ry="16" fill="#ffffff" stroke="#e5e7eb" stroke-width="2"/>

  <!-- Clipboard clip -->
  <rect x="210" y="100" width="92" height="40" rx="20" ry="20" fill="#6b7280" stroke="#374151" stroke-width="2"/>
  <rect x="220" y="110" width="72" height="20" rx="10" ry="10" fill="#ffffff"/>

  <!-- List items -->
  <!-- Item 1 -->
  <rect x="170" y="170" width="20" height="20" rx="4" ry="4" fill="#10b981" stroke="#059669" stroke-width="1"/>
  <path d="M175 175 L180 180 L185 170" stroke="#ffffff" stroke-width="2" fill="none" stroke-linecap="round" stroke-linejoin="round"/>
  <rect x="210" y="175" width="120" height="10" rx="5" ry="5" fill="#d1d5db"/>

  <!-- Item 2 -->
  <rect x="170" y="210" width="20" height="20" rx="4" ry="4" fill="#10b981" stroke="#059669" stroke-width="1"/>
  <path d="M175 215 L180 220 L185 210" stroke="#ffffff" stroke-width="2" fill="none" stroke-linecap="round" stroke-linejoin="round"/>
  <rect x="210" y="215" width="100" height="10" rx="5" ry="5" fill="#d1d5db"/>

  <!-- Item 3 -->
  <rect x="170" y="250" width="20" height="20" rx="4" ry="4" fill="#f59e0b" stroke="#d97706" stroke-width="1"/>
  <path d="M175 255 L180 260 L185 250" stroke="#ffffff" stroke-width="2" fill="none" stroke-linecap="round" stroke-linejoin="round"/>
  <rect x="210" y="255" width="90" height="10" rx="5" ry="5" fill="#d1d5db"/>

  <!-- Item 4 -->
  <rect x="170" y="290" width="20" height="20" rx="4" ry="4" fill="#ef4444" stroke="#dc2626" stroke-width="1"/>
  <text x="180" y="305" text-anchor="middle" fill="#ffffff" font-family="Arial, sans-serif" font-size="14" font-weight="bold">!</text>
  <rect x="210" y="295" width="80" height="10" rx="5" ry="5" fill="#d1d5db"/>

  <!-- Box icon in corner -->
  <g transform="translate(320, 320)">
    <rect x="0" y="10" width="40" height="40" rx="4" ry="4" fill="#8b5cf6" stroke="#7c3aed" stroke-width="1"/>
    <rect x="5" y="0" width="30" height="15" rx="2" ry="2" fill="#a78bfa"/>
    <rect x="10" y="20" width="20" height="3" fill="#ffffff" opacity="0.8"/>
    <rect x="10" y="28" width="15" height="3" fill="#ffffff" opacity="0.8"/>
    <rect x="10" y="36" width="25" height="3" fill="#ffffff" opacity="0.8"/>
  </g>
</svg>